<svg xmlns="http://www.w3.org/2000/svg" version="1.1" xmlns:xlink="http://www.w3.org/1999/xlink" xmlns:svgjs="http://svgjs.dev/svgjs" width="128" height="128" viewBox="0 0 128 128"><g transform="matrix(0.8046875,0,0,0.8046875,12.761042682103458,15.377414537201936)"><svg viewBox="0 0 95 90" data-background-color="#ffffff" preserveAspectRatio="xMidYMid meet" height="121" width="128" xmlns="http://www.w3.org/2000/svg" xmlns:xlink="http://www.w3.org/1999/xlink"><g id="tight-bounds" transform="matrix(1,0,0,1,-0.24023247767155453,-0.056392158273794735)"><svg viewBox="0 0 95.481 90.11278431654758" height="90.11278431654758" width="95.481"><g><svg viewBox="0 0 95.481 90.11278431654758" height="90.11278431654758" width="95.481"><g><svg viewBox="0 0 95.481 90.11278431654758" height="90.11278431654758" width="95.481"><g id="textblocktransform"><svg viewBox="0 0 95.481 90.11278431654758" height="90.11278431654758" width="95.481" id="textblock"><g><svg viewBox="0 0 95.481 90.11278431654758" height="90.11278431654758" width="95.481"><g><svg viewBox="0 0 95.481 90.11278431654758" height="90.11278431654758" width="95.481"><g><svg xmlns="http://www.w3.org/2000/svg" xmlns:xlink="http://www.w3.org/1999/xlink" version="1.1" x="0" y="0" viewBox="18.18738 20 67.81262 64" enable-background="new 0 0 100 100" xml:space="preserve" height="90.11278431654758" width="95.481" class="icon-icon-0" data-fill-palette-color="accent" id="icon-0"><g fill="#ff0000" data-fill-palette-color="accent"><path fill="#ff0000" d="M54 20c-17.673 0-32 14.327-32 32 0 12.052 6.665 22.542 16.507 28H18.187v4H54c17.673 0 32-14.327 32-32C86 34.327 71.673 20 54 20zM47.163 69.939c-2.929 2.929-7.678 2.929-10.606 0s-2.929-7.678 0-10.607c2.929-2.929 7.678-2.929 10.606 0C50.092 62.261 50.092 67.01 47.163 69.939zM47.163 44.668c-2.929 2.929-7.678 2.929-10.606 0s-2.929-7.678 0-10.607c2.929-2.929 7.678-2.929 10.606 0C50.092 36.99 50.092 41.739 47.163 44.668zM54 55.962c-2.209 0-4-1.774-4-3.962s1.791-3.962 4-3.962S58 49.812 58 52 56.209 55.962 54 55.962zM72.434 69.939c-2.929 2.929-7.678 2.929-10.607 0s-2.929-7.678 0-10.607c2.929-2.929 7.678-2.929 10.607 0C75.363 62.261 75.363 67.01 72.434 69.939zM72.434 44.668c-2.929 2.929-7.678 2.929-10.607 0s-2.929-7.678 0-10.607c2.929-2.929 7.678-2.929 10.607 0C75.363 36.99 75.363 41.739 72.434 44.668z" data-fill-palette-color="accent"></path></g></svg></g></svg></g></svg></g></svg></g></svg></g></svg></g><defs></defs></svg><rect width="95.481" height="90.11278431654758" fill="none" stroke="none" visibility="hidden"></rect></g></svg></g></svg>