<svg xmlns="http://www.w3.org/2000/svg" version="1.1" xmlns:xlink="http://www.w3.org/1999/xlink" xmlns:svgjs="http://svgjs.dev/svgjs" width="2000" height="1500" viewBox="0 0 2000 1500"><rect width="2000" height="1500" fill="#ffffff"></rect><g transform="matrix(0.75,0,0,0.75,250.42903092270421,602.3632220338983)"><svg viewBox="0 0 300 59" data-background-color="#ffffff" preserveAspectRatio="xMidYMid meet" height="393" width="2000" xmlns="http://www.w3.org/2000/svg" xmlns:xlink="http://www.w3.org/1999/xlink"><g id="tight-bounds" transform="matrix(1,0,0,1,-0.08580618454084288,0.052400000000005775)"><svg viewBox="0 0 300.1716123690817 58.8952" height="58.8952" width="300.1716123690817"><g><svg viewBox="0 0 300.1716123690817 58.8952" height="58.8952" width="300.1716123690817"><g><svg viewBox="0 0 300.1716123690817 58.8952" height="58.8952" width="300.1716123690817"><g id="textblocktransform"><svg viewBox="0 0 300.1716123690817 58.8952" height="58.8952" width="300.1716123690817" id="textblock"><g><svg viewBox="0 0 300.1716123690817 58.8952" height="58.8952" width="300.1716123690817"><g><svg><g></g><g></g></svg></g><g><svg><g></g><g><svg></svg></g></svg></g><g id="text-0"><svg viewBox="0 0 300.1716123690817 58.8952" height="58.8952" width="300.1716123690817"><g><svg xmlns="http://www.w3.org/2000/svg" xmlns:xlink="http://www.w3.org/1999/xlink" version="1.1" x="0" y="0" viewBox="6.536999999999999 3.213721866282485 86.92599999999999 88.87605679717433" enable-background="new 0 0 100 100" xml:space="preserve" height="58.8952" width="57.60296236908169" class="icon-cg-0" data-fill-palette-color="accent" id="cg-0"><g fill="#f70f03" data-fill-palette-color="accent"><path d="M79.497 19.805h-2.53l4.84-12.536 0.02-0.042c0.621-0.131 1.174-0.55 1.448-1.175 0.446-1.031-0.024-2.226-1.052-2.668C81.197 2.935 80 3.405 79.555 4.429c-0.274 0.628-0.202 1.318 0.129 1.869l-0.019 0.041-6.539 13.466h-4.743L61.846 6.336l-0.019-0.045c0.331-0.544 0.402-1.234 0.129-1.862-0.447-1.024-1.643-1.494-2.67-1.045-1.026 0.442-1.496 1.637-1.05 2.668 0.271 0.625 0.827 1.043 1.448 1.175l0.02 0.042 4.841 12.536H20.502c-7.699 0-13.965 6.269-13.965 13.964v30.692c0 7.052 5.252 12.891 12.044 13.828l-1.176 11.05-0.048 0.226c-0.229 1.108 0.484 2.207 1.598 2.436l0.225 0.046c1.113 0.229 2.201-0.484 2.434-1.598l0.048-0.223 3.523-11.24 0.07-0.338c0.018-0.076 0.025-0.148 0.034-0.221H74.71c0.01 0.072 0.018 0.145 0.034 0.221l0.07 0.338 3.522 11.24 0.05 0.223c0.23 1.113 1.32 1.826 2.434 1.598L81.045 92c1.113-0.229 1.825-1.327 1.597-2.436l-0.048-0.226-1.176-11.05c6.793-0.938 12.045-6.776 12.045-13.828V33.769C93.463 26.073 87.196 19.805 79.497 19.805zM89.688 64.461c0 5.618-4.572 10.19-10.19 10.19H20.502c-5.618 0-10.19-4.572-10.19-10.19V33.769c0-5.616 4.572-10.19 10.19-10.19h58.995c5.618 0 10.19 4.574 10.19 10.19V64.461z" fill="#f70f03" data-fill-palette-color="accent"></path><path d="M64.403 29.242H20.502c-2.5 0-4.528 2.028-4.528 4.526v30.692c0 2.505 2.028 4.532 4.528 4.532h43.901c2.501 0 4.528-2.027 4.528-4.532V33.769C68.932 31.27 66.904 29.242 64.403 29.242z" fill="#f70f03" data-fill-palette-color="accent"></path><path d="M79.118 29.242h-0.501c-2.503 0-4.526 2.028-4.526 4.526v0.505c0 2.499 2.023 4.524 4.526 4.524h0.501c2.502 0 4.53-2.026 4.53-4.524v-0.505C83.648 31.27 81.62 29.242 79.118 29.242z" fill="#f70f03" data-fill-palette-color="accent"></path><path d="M79.118 44.336h-0.501c-2.503 0-4.526 2.026-4.526 4.528v0.501c0 2.503 2.023 4.53 4.526 4.53h0.501c2.502 0 4.53-2.027 4.53-4.53v-0.501C83.648 46.362 81.62 44.336 79.118 44.336z" fill="#f70f03" data-fill-palette-color="accent"></path><path d="M79.118 59.43h-0.501c-2.503 0-4.526 2.024-4.526 4.532v0.499c0 2.505 2.023 4.532 4.526 4.532h0.501c2.502 0 4.53-2.027 4.53-4.532v-0.499C83.648 61.454 81.62 59.43 79.118 59.43z" fill="#f70f03" data-fill-palette-color="accent"></path></g></svg></g><g transform="matrix(1,0,0,1,71.50776236908169,0)"><svg width="228.66385000000002" viewBox="2.48 -35.7 141.31 36.400000000000006" height="58.8952" data-palette-color="#f70f03"><path d="M14 0.7L14 0.7Q11.85 0.7 9.64 0.34 7.43-0.03 5.55-0.58 3.68-1.13 2.48-1.68L2.48-1.68 3.18-7.48Q4.7-6.73 6.61-6.03 8.53-5.33 10.65-4.85 12.78-4.38 14.95-4.38L14.95-4.38Q17.98-4.38 19.78-5.51 21.58-6.65 21.58-9.05L21.58-9.05Q21.58-10.85 20.63-11.99 19.68-13.13 17.76-13.96 15.85-14.8 12.9-15.73L12.9-15.73Q10.08-16.63 7.74-17.82 5.4-19.03 4-20.96 2.6-22.9 2.6-26.03L2.6-26.03Q2.6-28.85 4.04-31.04 5.48-33.23 8.28-34.46 11.08-35.7 15.2-35.7L15.2-35.7Q18.55-35.7 21.44-34.96 24.33-34.23 26.28-33.38L26.28-33.38 25.73-27.68Q22.83-29.23 20.24-29.93 17.65-30.63 14.93-30.63L14.93-30.63Q11.98-30.63 10.16-29.58 8.35-28.53 8.35-26.25L8.35-26.25Q8.35-24.6 9.22-23.59 10.1-22.58 11.8-21.85 13.5-21.13 15.95-20.35L15.95-20.35Q19.68-19.23 22.28-17.8 24.88-16.38 26.24-14.33 27.6-12.28 27.6-9.25L27.6-9.25Q27.6-7.3 26.91-5.53 26.23-3.75 24.65-2.34 23.08-0.93 20.46-0.11 17.85 0.7 14 0.7ZM43.5 0.5L43.5 0.5Q39.3 0.5 36.44-1.23 33.57-2.95 32.12-5.84 30.67-8.72 30.67-12.25L30.67-12.25Q30.67-15.88 32.1-18.81 33.52-21.75 36.42-23.48 39.32-25.2 43.8-25.2L43.8-25.2Q45.8-25.2 47.5-24.79 49.2-24.38 50.5-23.7L50.5-23.7 49.87-19.3Q48.6-19.93 47.1-20.31 45.6-20.7 44-20.7L44-20.7Q40.12-20.7 38.06-18.45 36-16.2 36-12.38L36-12.38Q36-8.65 38.02-6.3 40.05-3.95 43.92-3.95L43.92-3.95Q45.52-3.95 47.03-4.36 48.55-4.78 49.92-5.5L49.92-5.5 50.5-1.2Q49.37-0.5 47.48 0 45.6 0.5 43.5 0.5ZM60.22 0L54.82 0 54.82-24.7 59.42-24.7 59.8-21.25Q61.3-23.05 63.01-24.13 64.72-25.2 66.72-25.2L66.72-25.2Q67.32-25.2 67.84-25.08L67.84-25.08 67.39-19.65Q66.97-19.75 66.53-19.8 66.09-19.85 65.62-19.85L65.62-19.85Q63.82-19.85 62.33-19.04 60.84-18.23 60.22-17.2L60.22-17.2 60.22 0ZM82.24 0.5L82.24 0.5Q77.82 0.5 74.84-1.29 71.87-3.08 70.35-6.04 68.84-9 68.84-12.53L68.84-12.53Q68.84-15.95 70.25-18.82 71.67-21.7 74.38-23.44 77.09-25.18 80.94-25.18L80.94-25.18Q84.22-25.18 86.62-23.85 89.02-22.53 90.3-20.15 91.59-17.78 91.59-14.6L91.59-14.6Q91.59-13.95 91.53-13.25 91.47-12.55 91.32-11.78L91.32-11.78 74.24-11.78Q74.57-8.85 75.79-7.14 77.02-5.43 78.84-4.7 80.67-3.98 82.79-3.98L82.79-3.98Q84.69-3.98 86.54-4.41 88.39-4.85 90.02-5.68L90.02-5.68 90.49-1.4Q89.07-0.73 86.99-0.11 84.92 0.5 82.24 0.5ZM74.54-15.35L74.54-15.35 86.24-15.35Q86.24-16.82 85.69-18.04 85.14-19.25 83.95-19.98 82.77-20.7 80.89-20.7L80.89-20.7Q78.14-20.7 76.63-19.25 75.12-17.8 74.54-15.35ZM107.91 0.5L107.91 0.5Q103.49 0.5 100.51-1.29 97.54-3.08 96.03-6.04 94.51-9 94.51-12.53L94.51-12.53Q94.51-15.95 95.93-18.82 97.34-21.7 100.05-23.44 102.76-25.18 106.61-25.18L106.61-25.18Q109.89-25.18 112.29-23.85 114.69-22.53 115.98-20.15 117.26-17.78 117.26-14.6L117.26-14.6Q117.26-13.95 117.2-13.25 117.14-12.55 116.99-11.78L116.99-11.78 99.91-11.78Q100.24-8.85 101.46-7.14 102.69-5.43 104.51-4.7 106.34-3.98 108.46-3.98L108.46-3.98Q110.36-3.98 112.21-4.41 114.06-4.85 115.69-5.68L115.69-5.68 116.16-1.4Q114.74-0.73 112.66-0.11 110.59 0.5 107.91 0.5ZM100.21-15.35L100.21-15.35 111.91-15.35Q111.91-16.82 111.36-18.04 110.81-19.25 109.63-19.98 108.44-20.7 106.56-20.7L106.56-20.7Q103.81-20.7 102.3-19.25 100.79-17.8 100.21-15.35ZM126.91 0L121.69 0 121.69-24.7 126.16-24.7 126.79-20.03 125.19-21.28Q127.21-23.38 129.41-24.28 131.61-25.18 134.01-25.18L134.01-25.18Q139.14-25.18 141.46-22.04 143.79-18.9 143.79-13.7L143.79-13.7 143.79 0 138.56 0 138.56-13.48Q138.56-17.2 137.24-18.95 135.91-20.7 132.76-20.7L132.76-20.7Q130.44-20.7 128.67-19.64 126.91-18.57 126.11-16.48L126.11-16.48 126.91-19.35 126.91 0Z" opacity="1" transform="matrix(1,0,0,1,0,0)" fill="#f70f03" class="wordmark-text-0" data-fill-palette-color="primary"></path></svg></g></svg></g></svg></g></svg></g></svg></g></svg></g><defs></defs></svg><rect width="300.1716123690817" height="58.8952" fill="none" stroke="none" visibility="hidden"></rect></g></svg></g></svg>